<svg width="163" height="23" viewBox="0 0 163 23" fill="none" xmlns="http://www.w3.org/2000/svg">
<path d="M0 0H12.0839C17.6454 0 22.1538 4.50846 22.1538 10.0699C22.1538 16.7437 16.7437 22.1538 10.0699 22.1538C4.50846 22.1538 0 17.6454 0 12.0839V0Z" fill="white"/>
<path d="M9.408 19.272H6V3.264H13.488C15.168 3.264 16.48 3.76 17.424 4.752C18.384 5.728 18.864 6.952 18.864 8.424C18.864 9.88 18.384 11.104 17.424 12.096C16.464 13.088 15.152 13.584 13.488 13.584H9.408V19.272ZM13.032 10.584C13.72 10.584 14.28 10.392 14.712 10.008C15.16 9.608 15.384 9.08 15.384 8.424C15.384 7.768 15.16 7.248 14.712 6.864C14.28 6.464 13.72 6.264 13.032 6.264H9.408V10.584H13.032Z" fill="#323232"/>
<path d="M37.42 19.272H26.092V3.264H37.42V6.264H29.5V9.648H37.252V12.648H29.5V16.272H37.42V19.272Z" fill="#323232"/>
<path d="M47.2122 19.272H43.7802V6.264H39.1002V3.264H51.8682V6.264H47.2122V19.272Z" fill="#323232"/>
<path d="M67.0129 19.272H63.1009L59.9569 13.584H57.4609V19.272H54.0529V3.264H61.5409C63.1889 3.264 64.4929 3.744 65.4529 4.704C66.4289 5.664 66.9169 6.904 66.9169 8.424C66.9169 9.736 66.5729 10.8 65.8849 11.616C65.2129 12.432 64.3889 12.952 63.4129 13.176L67.0129 19.272ZM61.0369 10.584C61.7409 10.584 62.3169 10.392 62.7649 10.008C63.2129 9.608 63.4369 9.08 63.4369 8.424C63.4369 7.768 63.2129 7.248 62.7649 6.864C62.3169 6.464 61.7409 6.264 61.0369 6.264H57.4609V10.584H61.0369Z" fill="#323232"/>
<path d="M77.0588 19.56C74.6428 19.56 72.6428 18.784 71.0588 17.232C69.4908 15.664 68.7068 13.68 68.7068 11.28C68.7068 8.88 69.4908 6.904 71.0588 5.352C72.6428 3.784 74.6428 3 77.0588 3C79.4908 3 81.4908 3.776 83.0588 5.328C84.6428 6.88 85.4348 8.864 85.4348 11.28C85.4348 13.696 84.6428 15.68 83.0588 17.232C81.4908 18.784 79.4908 19.56 77.0588 19.56ZM73.5308 15.048C74.4268 16.04 75.6028 16.536 77.0588 16.536C78.5148 16.536 79.6908 16.04 80.5868 15.048C81.4828 14.056 81.9308 12.8 81.9308 11.28C81.9308 9.76 81.4828 8.504 80.5868 7.512C79.6908 6.52 78.5148 6.024 77.0588 6.024C75.6028 6.024 74.4268 6.52 73.5308 7.512C72.6508 8.504 72.2108 9.76 72.2108 11.28C72.2108 12.8 72.6508 14.056 73.5308 15.048Z" fill="#323232"/>
<path d="M93.5144 19.56C90.6664 19.56 88.4104 18.712 86.7464 17.016L88.5944 14.424C89.9704 15.864 91.6664 16.584 93.6824 16.584C94.5624 16.584 95.2424 16.416 95.7224 16.08C96.2184 15.728 96.4664 15.304 96.4664 14.808C96.4664 14.376 96.2344 14.016 95.7704 13.728C95.3224 13.44 94.7544 13.232 94.0664 13.104C93.3944 12.976 92.6584 12.792 91.8584 12.552C91.0584 12.312 90.3144 12.04 89.6264 11.736C88.9544 11.432 88.3864 10.952 87.9224 10.296C87.4744 9.64 87.2504 8.84 87.2504 7.896C87.2504 6.52 87.8024 5.368 88.9064 4.44C90.0104 3.496 91.4824 3.024 93.3224 3.024C95.8664 3.024 97.9464 3.768 99.5624 5.256L97.6664 7.752C96.4024 6.584 94.8504 6 93.0104 6C92.2904 6 91.7304 6.144 91.3304 6.432C90.9304 6.72 90.7304 7.112 90.7304 7.608C90.7304 7.992 90.9544 8.32 91.4024 8.592C91.8664 8.848 92.4344 9.04 93.1064 9.168C93.7944 9.296 94.5304 9.488 95.3144 9.744C96.1144 9.984 96.8504 10.264 97.5224 10.584C98.2104 10.888 98.7784 11.376 99.2264 12.048C99.6904 12.704 99.9224 13.496 99.9224 14.424C99.9224 15.96 99.3704 17.2 98.2664 18.144C97.1784 19.088 95.5944 19.56 93.5144 19.56Z" fill="#323232"/>
<path d="M109.04 19.272H105.608V6.264H100.928V3.264H113.696V6.264H109.04V19.272Z" fill="#323232"/>
<path d="M128.841 19.272H124.929L121.785 13.584H119.289V19.272H115.881V3.264H123.369C125.017 3.264 126.321 3.744 127.281 4.704C128.257 5.664 128.745 6.904 128.745 8.424C128.745 9.736 128.401 10.8 127.713 11.616C127.041 12.432 126.217 12.952 125.241 13.176L128.841 19.272ZM122.865 10.584C123.569 10.584 124.145 10.392 124.593 10.008C125.041 9.608 125.265 9.08 125.265 8.424C125.265 7.768 125.041 7.248 124.593 6.864C124.145 6.464 123.569 6.264 122.865 6.264H119.289V10.584H122.865Z" fill="#323232"/>
<path d="M138.887 19.56C136.471 19.56 134.471 18.784 132.887 17.232C131.319 15.664 130.535 13.68 130.535 11.28C130.535 8.88 131.319 6.904 132.887 5.352C134.471 3.784 136.471 3 138.887 3C141.319 3 143.319 3.776 144.887 5.328C146.471 6.88 147.263 8.864 147.263 11.28C147.263 13.696 146.471 15.68 144.887 17.232C143.319 18.784 141.319 19.56 138.887 19.56ZM135.359 15.048C136.255 16.04 137.431 16.536 138.887 16.536C140.343 16.536 141.519 16.04 142.415 15.048C143.311 14.056 143.759 12.8 143.759 11.28C143.759 9.76 143.311 8.504 142.415 7.512C141.519 6.52 140.343 6.024 138.887 6.024C137.431 6.024 136.255 6.52 135.359 7.512C134.479 8.504 134.039 9.76 134.039 11.28C134.039 12.8 134.479 14.056 135.359 15.048Z" fill="#323232"/>
<path d="M156.566 19.272H153.158V12.72L146.99 3.264H150.878L154.862 9.696L158.798 3.264H162.686L156.566 12.72V19.272Z" fill="#323232"/>
<path d="M37.42 19.272H26.092V3.264H37.42V6.264H29.5V9.648H37.252V12.648H29.5V16.272H37.42V19.272Z" fill="#FFD113"/>
<path d="M47.2122 19.272H43.7802V6.264H39.1002V3.264H51.8682V6.264H47.2122V19.272Z" fill="#FFD113"/>
<path d="M67.0129 19.272H63.1009L59.9569 13.584H57.4609V19.272H54.0529V3.264H61.5409C63.1889 3.264 64.4929 3.744 65.4529 4.704C66.4289 5.664 66.9169 6.904 66.9169 8.424C66.9169 9.736 66.5729 10.8 65.8849 11.616C65.2129 12.432 64.3889 12.952 63.4129 13.176L67.0129 19.272ZM61.0369 10.584C61.7409 10.584 62.3169 10.392 62.7649 10.008C63.2129 9.608 63.4369 9.08 63.4369 8.424C63.4369 7.768 63.2129 7.248 62.7649 6.864C62.3169 6.464 61.7409 6.264 61.0369 6.264H57.4609V10.584H61.0369Z" fill="#FFD113"/>
<path d="M77.0588 19.56C74.6428 19.56 72.6428 18.784 71.0588 17.232C69.4908 15.664 68.7068 13.68 68.7068 11.28C68.7068 8.88 69.4908 6.904 71.0588 5.352C72.6428 3.784 74.6428 3 77.0588 3C79.4908 3 81.4908 3.776 83.0588 5.328C84.6428 6.88 85.4348 8.864 85.4348 11.28C85.4348 13.696 84.6428 15.68 83.0588 17.232C81.4908 18.784 79.4908 19.56 77.0588 19.56ZM73.5308 15.048C74.4268 16.04 75.6028 16.536 77.0588 16.536C78.5148 16.536 79.6908 16.04 80.5868 15.048C81.4828 14.056 81.9308 12.8 81.9308 11.28C81.9308 9.76 81.4828 8.504 80.5868 7.512C79.6908 6.52 78.5148 6.024 77.0588 6.024C75.6028 6.024 74.4268 6.52 73.5308 7.512C72.6508 8.504 72.2108 9.76 72.2108 11.28C72.2108 12.8 72.6508 14.056 73.5308 15.048Z" fill="#FFD113"/>
<path d="M93.5144 19.56C90.6664 19.56 88.4104 18.712 86.7464 17.016L88.5944 14.424C89.9704 15.864 91.6664 16.584 93.6824 16.584C94.5624 16.584 95.2424 16.416 95.7224 16.08C96.2184 15.728 96.4664 15.304 96.4664 14.808C96.4664 14.376 96.2344 14.016 95.7704 13.728C95.3224 13.44 94.7544 13.232 94.0664 13.104C93.3944 12.976 92.6584 12.792 91.8584 12.552C91.0584 12.312 90.3144 12.04 89.6264 11.736C88.9544 11.432 88.3864 10.952 87.9224 10.296C87.4744 9.64 87.2504 8.84 87.2504 7.896C87.2504 6.52 87.8024 5.368 88.9064 4.44C90.0104 3.496 91.4824 3.024 93.3224 3.024C95.8664 3.024 97.9464 3.768 99.5624 5.256L97.6664 7.752C96.4024 6.584 94.8504 6 93.0104 6C92.2904 6 91.7304 6.144 91.3304 6.432C90.9304 6.72 90.7304 7.112 90.7304 7.608C90.7304 7.992 90.9544 8.32 91.4024 8.592C91.8664 8.848 92.4344 9.04 93.1064 9.168C93.7944 9.296 94.5304 9.488 95.3144 9.744C96.1144 9.984 96.8504 10.264 97.5224 10.584C98.2104 10.888 98.7784 11.376 99.2264 12.048C99.6904 12.704 99.9224 13.496 99.9224 14.424C99.9224 15.96 99.3704 17.2 98.2664 18.144C97.1784 19.088 95.5944 19.56 93.5144 19.56Z" fill="#FFD113"/>
<path d="M109.04 19.272H105.608V6.264H100.928V3.264H113.696V6.264H109.04V19.272Z" fill="#FFD113"/>
<path d="M128.841 19.272H124.929L121.785 13.584H119.289V19.272H115.881V3.264H123.369C125.017 3.264 126.321 3.744 127.281 4.704C128.257 5.664 128.745 6.904 128.745 8.424C128.745 9.736 128.401 10.8 127.713 11.616C127.041 12.432 126.217 12.952 125.241 13.176L128.841 19.272ZM122.865 10.584C123.569 10.584 124.145 10.392 124.593 10.008C125.041 9.608 125.265 9.08 125.265 8.424C125.265 7.768 125.041 7.248 124.593 6.864C124.145 6.464 123.569 6.264 122.865 6.264H119.289V10.584H122.865Z" fill="#FFD113"/>
<path d="M138.887 19.56C136.471 19.56 134.471 18.784 132.887 17.232C131.319 15.664 130.535 13.68 130.535 11.28C130.535 8.88 131.319 6.904 132.887 5.352C134.471 3.784 136.471 3 138.887 3C141.319 3 143.319 3.776 144.887 5.328C146.471 6.88 147.263 8.864 147.263 11.28C147.263 13.696 146.471 15.68 144.887 17.232C143.319 18.784 141.319 19.56 138.887 19.56ZM135.359 15.048C136.255 16.04 137.431 16.536 138.887 16.536C140.343 16.536 141.519 16.04 142.415 15.048C143.311 14.056 143.759 12.8 143.759 11.28C143.759 9.76 143.311 8.504 142.415 7.512C141.519 6.52 140.343 6.024 138.887 6.024C137.431 6.024 136.255 6.52 135.359 7.512C134.479 8.504 134.039 9.76 134.039 11.28C134.039 12.8 134.479 14.056 135.359 15.048Z" fill="#FFD113"/>
<path d="M156.566 19.272H153.158V12.72L146.99 3.264H150.878L154.862 9.696L158.798 3.264H162.686L156.566 12.72V19.272Z" fill="#FFD113"/>
</svg>
